#N canvas 0 22 1295 609 10;
#X floatatom -604 69 5 0 0 0 - - -;
#X obj -654 116 float;
#X obj -596 116 + 1;
#X floatatom -704 70 5 0 0 0 - - -;
#X obj -704 140 hradio 12 1 0 16 empty empty empty 0 -8 0 10 -262144
-1 -1 0;
#X obj -704 160 select 0 1 2 3 4 5 6 7 8 9 10 11 12 13 14 15;
#X floatatom -704 332 5 0 0 0 - - -;
#X obj -704 258 int;
#X floatatom -674 332 5 0 0 0 - - -;
#X obj -674 258 int;
#X floatatom -644 332 5 0 0 0 - - -;
#X obj -644 258 int;
#X floatatom -614 332 5 0 0 0 - - -;
#X obj -614 258 int;
#X floatatom -584 332 5 0 0 0 - - -;
#X obj -584 258 int;
#X floatatom -554 332 5 0 0 0 - - -;
#X obj -554 258 int;
#X floatatom -524 332 5 0 0 0 - - -;
#X obj -524 258 int;
#X floatatom -494 332 5 0 0 0 - - -;
#X obj -494 258 int;
#X floatatom -464 332 5 0 0 0 - - -;
#X obj -464 258 int;
#X floatatom -434 332 5 0 0 0 - - -;
#X obj -434 258 int;
#X floatatom -404 332 5 0 0 0 - - -;
#X obj -404 258 int;
#X floatatom -374 332 5 0 0 0 - - -;
#X obj -374 258 int;
#X floatatom -344 332 5 0 0 0 - - -;
#X obj -344 258 int;
#X floatatom -314 332 5 0 0 0 - - -;
#X obj -314 258 int;
#X floatatom -284 332 5 0 0 0 - - -;
#X obj -284 258 int;
#X floatatom -254 332 5 0 0 0 - - -;
#X obj -254 258 int;
#X obj -704 116 mod 16;
#X obj -420 133 hradio 12 1 0 16 empty empty empty 0 -8 0 10 -262144
-1 -1 0;
#X obj -566 116 + 1;
#X obj -654 42 inlet;
#X floatatom -594 398 5 0 0 0 - - -;
#X obj -594 414 outlet;
#X obj -694 186 vradio 12 1 1 6 empty empty empty 0 -8 0 10 -262144
-1 -1 0;
#X obj -664 186 vradio 12 1 1 6 empty empty empty 0 -8 0 10 -262144
-1 -1 0;
#X obj -634 186 vradio 12 1 1 6 empty empty empty 0 -8 0 10 -262144
-1 -1 0;
#X obj -604 186 vradio 12 1 1 6 empty empty empty 0 -8 0 10 -262144
-1 -1 3;
#X obj -574 186 vradio 12 1 1 6 empty empty empty 0 -8 0 10 -262144
-1 -1 4;
#X obj -544 186 vradio 12 1 1 6 empty empty empty 0 -8 0 10 -262144
-1 -1 2;
#X obj -514 186 vradio 12 1 1 6 empty empty empty 0 -8 0 10 -262144
-1 -1 3;
#X obj -484 186 vradio 12 1 1 6 empty empty empty 0 -8 0 10 -262144
-1 -1 1;
#X obj -454 186 vradio 12 1 1 6 empty empty empty 0 -8 0 10 -262144
-1 -1 2;
#X obj -424 186 vradio 12 1 1 6 empty empty empty 0 -8 0 10 -262144
-1 -1 4;
#X obj -394 186 vradio 12 1 1 6 empty empty empty 0 -8 0 10 -262144
-1 -1 2;
#X obj -364 186 vradio 12 1 1 6 empty empty empty 0 -8 0 10 -262144
-1 -1 3;
#X obj -334 186 vradio 12 1 1 6 empty empty empty 0 -8 0 10 -262144
-1 -1 4;
#X obj -304 186 vradio 12 1 1 6 empty empty empty 0 -8 0 10 -262144
-1 -1 0;
#X obj -274 186 vradio 12 1 1 6 empty empty empty 0 -8 0 10 -262144
-1 -1 0;
#X obj -239 186 vradio 12 1 1 6 empty empty empty 0 -8 0 10 -262144
-1 -1 0;
#X obj -704 275 + 1;
#X obj -674 275 + 1;
#X obj -644 275 + 1;
#X obj -614 275 + 1;
#X obj -584 275 + 1;
#X obj -554 275 + 1;
#X obj -524 275 + 1;
#X obj -494 275 + 1;
#X obj -464 275 + 1;
#X obj -434 275 + 1;
#X obj -404 275 + 1;
#X obj -374 275 + 1;
#X obj -344 275 + 1;
#X obj -314 275 + 1;
#X obj -284 275 + 1;
#X obj -254 275 + 1;
#X obj -192 373 outlet;
#X obj -192 133 hradio 12 1 0 16 empty empty empty 0 -8 0 10 -262144
-1 -1 0;
#X floatatom -192 292 5 0 0 0 - - -;
#X obj -192 258 int;
#X floatatom -162 292 5 0 0 0 - - -;
#X obj -162 258 int;
#X floatatom -132 292 5 0 0 0 - - -;
#X obj -132 258 int;
#X floatatom -102 292 5 0 0 0 - - -;
#X obj -102 258 int;
#X floatatom -192 335 5 0 0 0 - - -;
#X obj -182 186 vradio 12 1 1 4 empty empty empty 0 -8 0 10 -262144
-1 -1 2;
#X obj -152 186 vradio 12 1 1 4 empty empty empty 0 -8 0 10 -262144
-1 -1 0;
#X obj -122 186 vradio 12 1 1 4 empty empty empty 0 -8 0 10 -262144
-1 -1 2;
#X obj -92 186 vradio 12 1 1 4 empty empty empty 0 -8 0 10 -262144
-1 -1 0;
#X obj -192 275 + 1;
#X obj -162 275 + 1;
#X obj -132 275 + 1;
#X obj -102 275 + 1;
#X text -596 432 to drums;
#X obj -654 69 metro;
#X text -123 68 reset counter;
#X msg -152 69 0;
#X obj -192 160 select 0 4 8 12;
#X obj -554 69 s tempo;
#X obj -480 0 r tempo1;
#X obj -450 -27 r tempo2;
#X obj -420 -54 r tempo3;
#X obj -390 -81 r tempo4;
#X obj -480 27 bng 15 250 50 0 empty empty empty 17 7 0 10 -262144
-1 -1;
#X obj -450 27 bng 15 250 50 0 empty empty empty 17 7 0 10 -262144
-1 -1;
#X obj -420 27 bng 15 250 50 0 empty empty empty 17 7 0 10 -262144
-1 -1;
#X obj -390 27 bng 15 250 50 0 empty empty empty 17 7 0 10 -262144
-1 -1;
#X obj -292 -25 r step1;
#X msg -299 4 0;
#X obj -271 -25 r step2;
#X msg -278 4 1;
#X obj -252 -25 r step3;
#X obj -231 -25 r step4;
#X obj -212 -25 r step5;
#X obj -191 -25 r step6;
#X obj -172 -25 r step7;
#X obj -151 -25 r step8;
#X msg -259 4 2;
#X msg -238 4 3;
#X msg -219 4 4;
#X msg -198 4 5;
#X msg -179 4 6;
#X msg -158 4 7;
#X obj -131 -25 r step9;
#X obj -112 -25 r step10;
#X obj -91 -25 r step11;
#X obj -72 -25 r step12;
#X obj -51 -25 r step13;
#X obj -32 -25 r step14;
#X obj -11 -25 r step15;
#X obj 8 -25 r step16;
#X msg -138 4 8;
#X msg -119 4 9;
#X msg -98 4 10;
#X msg -79 4 11;
#X msg -58 4 12;
#X msg -39 4 13;
#X msg -18 4 14;
#X msg 1 4 15;
#X msg -450 52 60;
#X msg -420 52 90;
#X msg -390 52 120;
#X obj 46 27 bng 15 250 50 0 empty empty empty 17 7 0 10 -262144 -1
-1;
#X obj 76 27 bng 15 250 50 0 empty empty empty 17 7 0 10 -262144 -1
-1;
#X obj 106 27 bng 15 250 50 0 empty empty empty 17 7 0 10 -262144 -1
-1;
#X obj 136 27 bng 15 250 50 0 empty empty empty 17 7 0 10 -262144 -1
-1;
#X obj 46 0 r tempo5;
#X obj 76 -27 r tempo6;
#X obj 106 -54 r tempo7;
#X obj 136 -81 r tempo8;
#X msg 46 52 180;
#X msg 76 52 240;
#X msg 106 52 320;
#X msg 136 52 480;
#X msg -480 52 10;
#X obj -604 8 r slow;
#X obj -604 31 * 120;
#X text -196 392 to video;
#X text -151 338 Video selector;
#X text -428 159 Drum sample selector;
#X text -331 113 number of steps;
#X text -293 -43 receive steps;
#X text -597 47 counter;
#X obj -292 -92 r joy2;
#X obj -192 -92 r joy4;
#X obj -242 -92 r joy3;
#X obj 222 10 r joy5;
#X obj 287 10 r joy6;
#X obj 352 10 r joy7;
#X obj 417 10 r joy8;
#X obj 402 10 bng 15 250 50 0 empty empty empty 17 7 0 10 -262144 -1
-1;
#X obj 337 10 bng 15 250 50 0 empty empty empty 17 7 0 10 -262144 -1
-1;
#X obj 272 10 bng 15 250 50 0 empty empty empty 17 7 0 10 -262144 -1
-1;
#X obj 207 10 bng 15 250 50 0 empty empty empty 17 7 0 10 -262144 -1
-1;
#X obj 52 160 r joy5;
#X obj 72 140 r joy6;
#X obj 77 120 r joy7;
#X obj 95 100 r joy8;
#X obj 80 100 bng 15 250 50 0 empty empty empty 17 7 0 10 -262144 -1
-1;
#X obj 62 120 bng 15 250 50 0 empty empty empty 17 7 0 10 -262144 -1
-1;
#X obj 57 140 bng 15 250 50 0 empty empty empty 17 7 0 10 -262144 -1
-1;
#X obj 37 160 bng 15 250 50 0 empty empty empty 17 7 0 10 -262144 -1
-1;
#X obj 37 292 unpack f f f f;
#X msg 77 235 4 3 4 3;
#X obj 161 169 - 1;
#X obj 183 169 - 1;
#X obj 491 169 - 1;
#X obj 469 169 - 1;
#X obj 447 169 - 1;
#X obj 425 169 - 1;
#X obj 403 169 - 1;
#X obj 381 169 - 1;
#X obj 359 169 - 1;
#X obj 337 169 - 1;
#X obj 315 169 - 1;
#X obj 293 169 - 1;
#X obj 271 169 - 1;
#X obj 249 169 - 1;
#X obj 227 169 - 1;
#X obj 205 169 - 1;
#X obj 37 339 - 1;
#X obj 118 339 - 1;
#X obj 91 339 - 1;
#X obj 64 339 - 1;
#X text -293 -111 Joystick tempo selection (90 \, 120 \, 180);
#X text 203 -14 Joystick Sequence Selection (Audio);
#X text 33 362 Joystick Sequence Selection (Audio);
#X obj -604 -108 r joyz-rot;
#X obj -604 -51 maxlib/scale;
#X floatatom -604 -67 5 0 0 0 - - -;
#X floatatom -572 -67 5 0 0 0 - - -;
#X floatatom -540 -67 5 0 0 0 - - -;
#X floatatom -508 -67 5 0 0 0 - - -;
#X floatatom -476 -67 5 0 0 0 - - -;
#X floatatom -604 -24 5 0 0 0 - - -;
#X msg -530 -108 127;
#X msg -500 -108 0;
#X msg -470 -108 127;
#X msg -440 -108 180;
#X msg -410 -108 0;
#X obj -500 -135 loadbang;
#X text -605 -128 Glitch Control;
#X obj 217 132 unpack f f f f f f f f f f f f f f f f;
#X msg 267 105 1 2 3 4 5 4 3 2 1 2 3 4 5 4 3 2;
#X msg 207 45 1 1 1 4 1 1 1 1 3 1 1 5 1 1 5 1 1;
#X msg 227 65 1 1 1 4 5 3 4 2 3 5 3 4 5 1 1;
#X msg 37 195 2 2 2 2;
#X msg 97 255 2 4 2 4;
#X msg 57 215 3 1 3 1;
#X msg 247 85 6 3 5 4 6 4 5 1 5 4 5 1 4 1 2 1;
#X connect 0 0 96 1;
#X connect 0 0 100 0;
#X connect 1 0 2 0;
#X connect 1 0 3 0;
#X connect 2 0 1 1;
#X connect 3 0 38 0;
#X connect 4 0 5 0;
#X connect 5 0 7 0;
#X connect 5 1 9 0;
#X connect 5 2 11 0;
#X connect 5 3 13 0;
#X connect 5 4 15 0;
#X connect 5 5 17 0;
#X connect 5 6 19 0;
#X connect 5 7 21 0;
#X connect 5 8 23 0;
#X connect 5 9 25 0;
#X connect 5 10 27 0;
#X connect 5 11 29 0;
#X connect 5 12 31 0;
#X connect 5 13 33 0;
#X connect 5 14 35 0;
#X connect 5 15 37 0;
#X connect 6 0 42 0;
#X connect 7 0 60 0;
#X connect 8 0 42 0;
#X connect 9 0 61 0;
#X connect 10 0 42 0;
#X connect 11 0 62 0;
#X connect 12 0 42 0;
#X connect 13 0 63 0;
#X connect 14 0 42 0;
#X connect 15 0 64 0;
#X connect 16 0 42 0;
#X connect 17 0 65 0;
#X connect 18 0 42 0;
#X connect 19 0 66 0;
#X connect 20 0 42 0;
#X connect 21 0 67 0;
#X connect 22 0 42 0;
#X connect 23 0 68 0;
#X connect 24 0 42 0;
#X connect 25 0 69 0;
#X connect 26 0 42 0;
#X connect 27 0 70 0;
#X connect 28 0 42 0;
#X connect 29 0 71 0;
#X connect 30 0 42 0;
#X connect 31 0 72 0;
#X connect 32 0 42 0;
#X connect 33 0 73 0;
#X connect 34 0 42 0;
#X connect 35 0 74 0;
#X connect 36 0 42 0;
#X connect 37 0 75 0;
#X connect 38 0 4 0;
#X connect 38 0 77 0;
#X connect 39 0 40 0;
#X connect 40 0 38 1;
#X connect 41 0 96 0;
#X connect 42 0 43 0;
#X connect 44 0 7 1;
#X connect 45 0 9 1;
#X connect 46 0 11 1;
#X connect 47 0 13 1;
#X connect 48 0 15 1;
#X connect 49 0 17 1;
#X connect 50 0 19 1;
#X connect 51 0 21 1;
#X connect 52 0 23 1;
#X connect 53 0 25 1;
#X connect 54 0 27 1;
#X connect 55 0 29 1;
#X connect 56 0 31 1;
#X connect 57 0 33 1;
#X connect 58 0 35 1;
#X connect 59 0 37 1;
#X connect 60 0 6 0;
#X connect 61 0 8 0;
#X connect 62 0 10 0;
#X connect 63 0 12 0;
#X connect 64 0 14 0;
#X connect 65 0 16 0;
#X connect 66 0 18 0;
#X connect 67 0 20 0;
#X connect 68 0 22 0;
#X connect 69 0 24 0;
#X connect 70 0 26 0;
#X connect 71 0 28 0;
#X connect 72 0 30 0;
#X connect 73 0 32 0;
#X connect 74 0 34 0;
#X connect 75 0 36 0;
#X connect 77 0 99 0;
#X connect 78 0 86 0;
#X connect 79 0 91 0;
#X connect 80 0 86 0;
#X connect 81 0 92 0;
#X connect 82 0 86 0;
#X connect 83 0 93 0;
#X connect 84 0 86 0;
#X connect 85 0 94 0;
#X connect 86 0 76 0;
#X connect 87 0 79 1;
#X connect 88 0 81 1;
#X connect 89 0 83 1;
#X connect 90 0 85 1;
#X connect 91 0 78 0;
#X connect 92 0 80 0;
#X connect 93 0 82 0;
#X connect 94 0 84 0;
#X connect 96 0 1 0;
#X connect 98 0 1 0;
#X connect 99 0 79 0;
#X connect 99 1 81 0;
#X connect 99 2 83 0;
#X connect 99 3 85 0;
#X connect 101 0 105 0;
#X connect 102 0 106 0;
#X connect 103 0 107 0;
#X connect 104 0 108 0;
#X connect 105 0 156 0;
#X connect 106 0 141 0;
#X connect 107 0 142 0;
#X connect 108 0 143 0;
#X connect 109 0 110 0;
#X connect 110 0 39 0;
#X connect 111 0 112 0;
#X connect 112 0 39 0;
#X connect 113 0 119 0;
#X connect 114 0 120 0;
#X connect 115 0 121 0;
#X connect 116 0 122 0;
#X connect 117 0 123 0;
#X connect 118 0 124 0;
#X connect 119 0 39 0;
#X connect 120 0 39 0;
#X connect 121 0 39 0;
#X connect 122 0 39 0;
#X connect 123 0 39 0;
#X connect 124 0 39 0;
#X connect 125 0 133 0;
#X connect 126 0 134 0;
#X connect 127 0 135 0;
#X connect 128 0 136 0;
#X connect 129 0 137 0;
#X connect 130 0 138 0;
#X connect 131 0 139 0;
#X connect 132 0 140 0;
#X connect 133 0 39 0;
#X connect 134 0 39 0;
#X connect 135 0 39 0;
#X connect 136 0 39 0;
#X connect 137 0 39 0;
#X connect 138 0 39 0;
#X connect 139 0 39 0;
#X connect 140 0 39 0;
#X connect 141 0 0 0;
#X connect 142 0 0 0;
#X connect 143 0 0 0;
#X connect 144 0 152 0;
#X connect 145 0 153 0;
#X connect 146 0 154 0;
#X connect 147 0 155 0;
#X connect 148 0 144 0;
#X connect 149 0 145 0;
#X connect 150 0 146 0;
#X connect 151 0 147 0;
#X connect 152 0 0 0;
#X connect 153 0 0 0;
#X connect 154 0 0 0;
#X connect 155 0 0 0;
#X connect 156 0 0 0;
#X connect 157 0 158 0;
#X connect 158 0 0 0;
#X connect 165 0 107 0;
#X connect 166 0 144 0;
#X connect 167 0 108 0;
#X connect 168 0 175 0;
#X connect 169 0 174 0;
#X connect 170 0 173 0;
#X connect 170 0 231 0;
#X connect 171 0 172 0;
#X connect 171 0 225 0;
#X connect 174 0 227 0;
#X connect 175 0 226 0;
#X connect 176 0 183 0;
#X connect 177 0 182 0;
#X connect 178 0 181 0;
#X connect 178 0 185 0;
#X connect 179 0 180 0;
#X connect 179 0 229 0;
#X connect 182 0 230 0;
#X connect 183 0 228 0;
#X connect 184 0 202 0;
#X connect 184 1 205 0;
#X connect 184 2 204 0;
#X connect 184 3 203 0;
#X connect 185 0 184 0;
#X connect 186 0 44 0;
#X connect 187 0 45 0;
#X connect 188 0 59 0;
#X connect 189 0 58 0;
#X connect 190 0 57 0;
#X connect 191 0 56 0;
#X connect 192 0 55 0;
#X connect 193 0 54 0;
#X connect 194 0 53 0;
#X connect 195 0 52 0;
#X connect 196 0 51 0;
#X connect 197 0 50 0;
#X connect 198 0 49 0;
#X connect 199 0 48 0;
#X connect 200 0 47 0;
#X connect 201 0 46 0;
#X connect 202 0 87 0;
#X connect 203 0 90 0;
#X connect 204 0 89 0;
#X connect 205 0 88 0;
#X connect 209 0 211 0;
#X connect 210 0 216 0;
#X connect 211 0 210 0;
#X connect 212 0 210 1;
#X connect 213 0 210 2;
#X connect 214 0 210 3;
#X connect 215 0 210 4;
#X connect 216 0 0 0;
#X connect 217 0 211 0;
#X connect 218 0 212 0;
#X connect 219 0 213 0;
#X connect 220 0 214 0;
#X connect 221 0 215 0;
#X connect 222 0 217 0;
#X connect 222 0 218 0;
#X connect 222 0 219 0;
#X connect 222 0 220 0;
#X connect 222 0 221 0;
#X connect 224 0 186 0;
#X connect 224 1 187 0;
#X connect 224 2 201 0;
#X connect 224 3 200 0;
#X connect 224 4 199 0;
#X connect 224 5 198 0;
#X connect 224 6 197 0;
#X connect 224 7 196 0;
#X connect 224 8 195 0;
#X connect 224 9 194 0;
#X connect 224 10 193 0;
#X connect 224 11 192 0;
#X connect 224 12 191 0;
#X connect 224 13 190 0;
#X connect 224 14 189 0;
#X connect 224 15 188 0;
#X connect 225 0 224 0;
#X connect 226 0 224 0;
#X connect 227 0 224 0;
#X connect 228 0 184 0;
#X connect 229 0 184 0;
#X connect 230 0 184 0;
#X connect 231 0 224 0;
