#N canvas 344 46 1067 768 10;
#X obj -127 -53 avj16-drums;
#X obj -127 -80 tgl 15 0 empty empty empty 17 7 0 10 -262144 -1 -1
0 1;
#X obj -102 -80 avj16-seq;
#X obj -77 41 unpackOSC;
#X obj -77 68 routeOSC /1;
#X obj -77 14 udpreceive 8000;
#X floatatom 285 112 5 0 0 0 - - -;
#X obj 285 138 send master;
#X obj -77 179 routeOSC /drum1 /drum2 /drum3 /drum4 /drum5 /drum6;
#X obj -77 122 routeOSC /drum1pan /drum2pan /drum3pan /drum4pan /drum5pan
/drum6pan;
#X obj -77 196 send d1;
#X obj -27 196 send d2;
#X obj 23 196 send d3;
#X obj 73 196 send d4;
#X obj 123 196 send d5;
#X obj 173 196 send d6;
#X obj -77 152 send d1p;
#X obj -17 152 send d2p;
#X obj 43 152 send d3p;
#X obj 103 152 send d4p;
#X obj 163 152 send d5p;
#X obj 223 152 send d6p;
#X obj -77 223 routeOSC /reverbdry /reverbwet /reverbroom;
#X obj -77 240 send dry;
#X obj -17 240 send wet;
#X obj 43 240 send room;
#X obj -77 267 routeOSC /delay1 /delay2 /delay3 /delay4;
#X obj -77 284 send dy1;
#X obj -27 284 send dy2;
#X obj 23 284 send dy3;
#X obj 73 284 send dy4;
#X obj -77 341 send tempo1;
#X obj -7 341 send tempo2;
#X obj 63 341 send tempo3;
#X obj 133 341 send tempo4;
#X obj -77 429 s step1;
#X obj -77 386 routeOSC /step1 /step2 /step3 /step4 /step5 /step6 /step7
/step8 /step9 /step10 /step11 /step12 /step13 /step14 /step15 /step16
;
#X obj -56 446 s step2;
#X obj -35 429 s step3;
#X obj -14 446 s step4;
#X obj 7 429 s step5;
#X obj 28 446 s step6;
#X obj 50 429 s step7;
#X obj 71 446 s step8;
#X obj 92 429 s step9;
#X obj 113 446 s step10;
#X obj 134 429 s step11;
#X obj 156 446 s step12;
#X obj 177 429 s step13;
#X obj 198 446 s step14;
#X obj 219 429 s step15;
#X obj 240 446 s step16;
#X obj -77 473 routeOSC /rotary1 /rotary2 /rotary3 /rotary4;
#X obj -77 490 s rot1;
#X obj -37 490 s rot2;
#X obj 3 490 s rot3;
#X obj 43 490 s rot4;
#X obj -77 517 routeOSC /rot1reset /rot2reset /rot3reset /rot4reset
;
#X obj 43 534 s rot4r;
#X obj 3 534 s rot3r;
#X obj -37 534 s rot2r;
#X obj -77 534 s rot1r;
#X obj -77 311 routeOSC /tempo1 /tempo2 /tempo3 /tempo4 /tempo5 /tempo6
/tempo7 /tempo8;
#X obj 133 359 send tempo8;
#X obj 63 359 send tempo7;
#X obj -7 359 send tempo6;
#X obj -77 359 send tempo5;
#X obj -77 95 routeOSC /startstop /fader1 /slow;
#X obj 319 112 send slow;
#X floatatom 457 -37 5 0 0 0 - - -;
#X floatatom 502 -37 5 0 0 0 - - -;
#X obj 457 -54 notein 1;
#X floatatom 557 -37 5 0 0 0 - - -;
#X floatatom 602 -37 5 0 0 0 - - -;
#X floatatom 657 -37 5 0 0 0 - - -;
#X floatatom 702 -37 5 0 0 0 - - -;
#X floatatom 757 -37 5 0 0 0 - - -;
#X floatatom 802 -37 5 0 0 0 - - -;
#X floatatom 457 90 5 0 0 0 - - -;
#X floatatom 502 90 5 0 0 0 - - -;
#X floatatom 557 90 5 0 0 0 - - -;
#X floatatom 602 90 5 0 0 0 - - -;
#X floatatom 657 90 5 0 0 0 - - -;
#X floatatom 702 90 5 0 0 0 - - -;
#X floatatom 757 90 5 0 0 0 - - -;
#X floatatom 802 90 5 0 0 0 - - -;
#X obj 557 -54 notein 2;
#X obj 657 -54 notein 3;
#X obj 757 -54 notein 4;
#X obj 457 73 notein 5;
#X obj 557 73 notein 6;
#X obj 657 73 notein 7;
#X obj 757 73 notein 8;
#X obj 457 200 ctlin 13 1;
#X obj 557 200 ctlin 14 2;
#X floatatom 457 217 5 0 0 0 - - -;
#X floatatom 557 217 5 0 0 0 - - -;
#X obj 457 233 send joyx;
#X obj 557 233 send joyy;
#X text 104 37 OSC Data Routing;
#X text 721 266 Joystick MIDI Input;
#X obj 512 -9 bng 15 250 50 0 empty empty empty 17 7 0 10 -262144 -1
-1;
#X obj 457 -11 moses 1;
#X obj 613 -9 bng 15 250 50 0 empty empty empty 17 7 0 10 -262144 -1
-1;
#X obj 557 -11 moses 1;
#X obj 712 -9 bng 15 250 50 0 empty empty empty 17 7 0 10 -262144 -1
-1;
#X obj 657 -11 moses 1;
#X obj 812 -9 bng 15 250 50 0 empty empty empty 17 7 0 10 -262144 -1
-1;
#X obj 757 -11 moses 1;
#X obj 512 118 bng 15 250 50 0 empty empty empty 17 7 0 10 -262144
-1 -1;
#X obj 457 116 moses 1;
#X obj 613 118 bng 15 250 50 0 empty empty empty 17 7 0 10 -262144
-1 -1;
#X obj 557 116 moses 1;
#X obj 712 118 bng 15 250 50 0 empty empty empty 17 7 0 10 -262144
-1 -1;
#X obj 657 116 moses 1;
#X obj 812 118 bng 15 250 50 0 empty empty empty 17 7 0 10 -262144
-1 -1;
#X obj 757 116 moses 1;
#X obj 457 16 send joy1;
#X obj 557 16 send joy2;
#X obj 657 16 send joy3;
#X obj 757 16 send joy4;
#X obj 457 143 send joy5;
#X obj 557 143 send joy6;
#X obj 657 143 send joy7;
#X obj 757 143 send joy8;
#X floatatom 657 217 5 0 0 0 - - -;
#X obj 657 200 ctlin 16 1;
#X obj 657 233 send joyz-rot;
#X floatatom 457 387 5 0 0 0 - - -;
#X floatatom 557 387 5 0 0 0 - - -;
#X floatatom 657 387 5 0 0 0 - - -;
#X floatatom 757 387 5 0 0 0 - - -;
#X obj 457 370 ctlin 3;
#X obj 557 370 ctlin 4;
#X obj 657 370 ctlin 5;
#X obj 757 370 ctlin 6;
#X text 702 436 Leap Motion MIDI Input;
#X obj 457 403 send openx;
#X obj 557 403 send openy;
#X obj 657 403 send closedx;
#X obj 757 403 send closedy;
#X obj -38 -53 video4channel;
#X floatatom 457 467 5 0 0 0 - - -;
#X obj 457 450 ctlin 7;
#X obj 457 483 send closedbfd;
#X connect 1 0 2 0;
#X connect 2 0 0 0;
#X connect 2 1 141 0;
#X connect 3 0 4 0;
#X connect 4 0 8 0;
#X connect 4 0 9 0;
#X connect 4 0 22 0;
#X connect 4 0 26 0;
#X connect 4 0 36 0;
#X connect 4 0 52 0;
#X connect 4 0 57 0;
#X connect 4 0 62 0;
#X connect 4 0 67 0;
#X connect 5 0 3 0;
#X connect 6 0 7 0;
#X connect 8 0 10 0;
#X connect 8 1 11 0;
#X connect 8 2 12 0;
#X connect 8 3 13 0;
#X connect 8 4 14 0;
#X connect 8 5 15 0;
#X connect 9 0 16 0;
#X connect 9 1 17 0;
#X connect 9 2 18 0;
#X connect 9 3 19 0;
#X connect 9 4 20 0;
#X connect 9 5 21 0;
#X connect 22 0 23 0;
#X connect 22 1 24 0;
#X connect 22 2 25 0;
#X connect 26 0 27 0;
#X connect 26 1 28 0;
#X connect 26 2 29 0;
#X connect 26 3 30 0;
#X connect 36 0 35 0;
#X connect 36 1 37 0;
#X connect 36 2 38 0;
#X connect 36 3 39 0;
#X connect 36 4 40 0;
#X connect 36 5 41 0;
#X connect 36 6 42 0;
#X connect 36 7 43 0;
#X connect 36 8 44 0;
#X connect 36 9 45 0;
#X connect 36 10 46 0;
#X connect 36 11 47 0;
#X connect 36 12 48 0;
#X connect 36 13 49 0;
#X connect 36 14 50 0;
#X connect 36 15 51 0;
#X connect 52 0 53 0;
#X connect 52 1 54 0;
#X connect 52 2 55 0;
#X connect 52 3 56 0;
#X connect 57 0 61 0;
#X connect 57 1 60 0;
#X connect 57 2 59 0;
#X connect 57 3 58 0;
#X connect 62 0 31 0;
#X connect 62 1 32 0;
#X connect 62 2 33 0;
#X connect 62 3 34 0;
#X connect 62 4 66 0;
#X connect 62 5 65 0;
#X connect 62 6 64 0;
#X connect 62 7 63 0;
#X connect 67 0 1 0;
#X connect 67 1 6 0;
#X connect 67 2 68 0;
#X connect 70 0 102 0;
#X connect 71 0 69 0;
#X connect 71 1 70 0;
#X connect 73 0 104 0;
#X connect 75 0 106 0;
#X connect 77 0 108 0;
#X connect 79 0 110 0;
#X connect 81 0 112 0;
#X connect 83 0 114 0;
#X connect 85 0 116 0;
#X connect 86 0 72 0;
#X connect 86 1 73 0;
#X connect 87 0 74 0;
#X connect 87 1 75 0;
#X connect 88 0 76 0;
#X connect 88 1 77 0;
#X connect 89 0 78 0;
#X connect 89 1 79 0;
#X connect 90 0 80 0;
#X connect 90 1 81 0;
#X connect 91 0 82 0;
#X connect 91 1 83 0;
#X connect 92 0 84 0;
#X connect 92 1 85 0;
#X connect 93 0 95 0;
#X connect 94 0 96 0;
#X connect 95 0 97 0;
#X connect 96 0 98 0;
#X connect 101 0 117 0;
#X connect 102 1 101 0;
#X connect 103 0 118 0;
#X connect 104 1 103 0;
#X connect 105 0 119 0;
#X connect 106 1 105 0;
#X connect 107 0 120 0;
#X connect 108 1 107 0;
#X connect 109 0 121 0;
#X connect 110 1 109 0;
#X connect 111 0 122 0;
#X connect 112 1 111 0;
#X connect 113 0 123 0;
#X connect 114 1 113 0;
#X connect 115 0 124 0;
#X connect 116 1 115 0;
#X connect 125 0 127 0;
#X connect 126 0 125 0;
#X connect 128 0 137 0;
#X connect 129 0 138 0;
#X connect 130 0 139 0;
#X connect 131 0 140 0;
#X connect 132 0 128 0;
#X connect 133 0 129 0;
#X connect 134 0 130 0;
#X connect 135 0 131 0;
#X connect 142 0 144 0;
#X connect 143 0 142 0;
