#N canvas 0 22 1280 1001 10;
#X obj 817 -269 tgl 15 0 empty empty empty 17 7 0 10 -262144 -1 -1
0 1;
#X msg 817 -314 \; pd dsp \$1;
#X obj 9 -529 soundfiler;
#X obj 115 -324 bng 15 250 50 0 empty empty empty 17 7 0 10 -262144
-1 -1;
#X obj 9 -583 loadbang;
#N canvas 0 22 450 300 (subpatch) 0;
#X array channel1 144640 float 2;
#X coords 0 1 144640 -1 200 140 1;
#X restore 9 -492 graph;
#X obj 179 -529 soundfiler;
#X obj 179 -583 loadbang;
#N canvas 0 22 450 300 (subpatch) 0;
#X array channel2 83936 float 2;
#X coords 0 1 83936 -1 200 140 1;
#X restore 179 -492 graph;
#X obj 349 -529 soundfiler;
#X obj 349 -583 loadbang;
#N canvas 0 22 450 300 (subpatch) 0;
#X array channel3 25344 float 2;
#X coords 0 1 25344 -1 200 140 1;
#X restore 349 -492 graph;
#X obj 519 -529 soundfiler;
#X obj 519 -583 loadbang;
#N canvas 0 22 450 300 (subpatch) 0;
#X array channel4 6808 float 2;
#X coords 0 1 6808 -1 200 140 1;
#X restore 519 -492 graph;
#X obj 689 -529 soundfiler;
#X obj 689 -583 loadbang;
#N canvas 0 22 450 300 (subpatch) 0;
#X array channel5 24104 float 2;
#X coords 0 1 24104 -1 200 140 1;
#X restore 689 -492 graph;
#X obj 859 -529 soundfiler;
#X obj 859 -583 loadbang;
#N canvas 0 22 450 300 (subpatch) 0;
#X array channel6 120536 float 2;
#X coords 0 1 120536 -1 200 140 1;
#X restore 859 -492 graph;
#X msg 9 -556 read -resize 1.wav channel1;
#X obj 505 -324 bng 15 250 50 0 empty empty empty 17 7 0 10 -262144
-1 -1;
#X obj 139 -324 tabplay~ channel2;
#X obj 245 -324 bng 15 250 50 0 empty empty empty 17 7 0 10 -262144
-1 -1;
#X obj 635 -324 bng 15 250 50 0 empty empty empty 17 7 0 10 -262144
-1 -1;
#X obj 375 -324 bng 15 250 50 0 empty empty empty 17 7 0 10 -262144
-1 -1;
#X obj 765 -324 bng 15 250 50 0 empty empty empty 17 7 0 10 -262144
-1 -1;
#X obj 9 -324 tabplay~ channel1;
#X obj 399 -324 tabplay~ channel4;
#X obj 529 -324 tabplay~ channel5;
#X obj 659 -324 tabplay~ channel6;
#X obj 269 -324 tabplay~ channel3;
#X msg 179 -556 read -resize 2.wav channel2;
#X msg 349 -556 read -resize 3.wav channel3;
#X msg 519 -556 read -resize 4.wav channel4;
#X msg 689 -556 read -resize 5.wav channel5;
#X msg 859 -556 read -resize 6.wav channel6;
#X obj 100 -247 vsl 30 60 0 1 0 1 empty empty empty 0 -9 0 10 -262144
-1 -1 0 1;
#X obj 9 -165 *~;
#X obj 39 -165 *~;
#X obj 68 -270 hsl 60 15 1 0 0 1 empty empty empty -2 -8 0 10 -262144
-1 -1 3077 1;
#X floatatom 9 -270 5 0 0 0 - - -;
#X floatatom 9 -217 5 0 0 0 - - -;
#X obj 9 -244 - 1;
#X obj 9 -191 abs;
#X obj 9 -138 *~;
#X obj 39 -138 *~;
#X obj 230 -247 vsl 30 60 0 1 0 1 empty empty empty 0 -9 0 10 -262144
-1 -1 2302 1;
#X obj 139 -165 *~;
#X obj 169 -165 *~;
#X obj 198 -270 hsl 60 15 1 0 0 1 empty empty empty -2 -8 0 10 -262144
-1 -1 3501 1;
#X floatatom 139 -270 5 0 0 0 - - -;
#X floatatom 139 -217 5 0 0 0 - - -;
#X obj 139 -244 - 1;
#X obj 139 -191 abs;
#X obj 139 -138 *~;
#X obj 169 -138 *~;
#X obj 360 -247 vsl 30 60 0 1 0 1 empty empty empty 0 -9 0 10 -262144
-1 -1 4214 1;
#X obj 269 -165 *~;
#X obj 299 -165 *~;
#X obj 328 -270 hsl 60 15 1 0 0 1 empty empty empty -2 -8 0 10 -262144
-1 -1 3800 1;
#X floatatom 269 -270 5 0 0 0 - - -;
#X floatatom 269 -217 5 0 0 0 - - -;
#X obj 269 -244 - 1;
#X obj 269 -191 abs;
#X obj 269 -138 *~;
#X obj 299 -138 *~;
#X obj 490 -247 vsl 30 60 0 1 0 1 empty empty empty 0 -9 0 10 -262144
-1 -1 4911 1;
#X obj 399 -165 *~;
#X obj 429 -165 *~;
#X obj 458 -270 hsl 60 15 1 0 0 1 empty empty empty -2 -8 0 10 -262144
-1 -1 3060 1;
#X floatatom 399 -270 5 0 0 0 - - -;
#X floatatom 399 -217 5 0 0 0 - - -;
#X obj 399 -244 - 1;
#X obj 399 -191 abs;
#X obj 399 -138 *~;
#X obj 429 -138 *~;
#X obj 620 -247 vsl 30 60 0 1 0 1 empty empty empty 0 -9 0 10 -262144
-1 -1 3728 1;
#X obj 529 -165 *~;
#X obj 559 -165 *~;
#X obj 588 -270 hsl 60 15 1 0 0 1 empty empty empty -2 -8 0 10 -262144
-1 -1 2732 1;
#X floatatom 529 -270 5 0 0 0 - - -;
#X floatatom 529 -217 5 0 0 0 - - -;
#X obj 529 -244 - 1;
#X obj 529 -191 abs;
#X obj 529 -138 *~;
#X obj 559 -138 *~;
#X obj 750 -247 vsl 30 60 0 1 0 0 empty empty empty 0 -9 0 10 -262144
-1 -1 0 1;
#X obj 659 -165 *~;
#X obj 689 -165 *~;
#X obj 718 -270 hsl 60 15 1 0 0 1 empty empty empty -2 -8 0 10 -262144
-1 -1 3200 1;
#X floatatom 659 -270 5 0 0 0 - - -;
#X floatatom 659 -217 5 0 0 0 - - -;
#X obj 659 -244 - 1;
#X obj 659 -191 abs;
#X obj 659 -138 *~;
#X obj 689 -138 *~;
#X obj 899 -318 inlet;
#X floatatom 943 -317 5 0 0 0 - - -;
#X obj 899 -341 select 1 2 3 4 5 6;
#X obj 559 -122 *~;
#X obj 529 -121 *~;
#X obj 833 -203 hsl 128 30 0 1 0 0 empty empty empty -2 -8 0 10 -262144
-1 -1 0 0;
#X obj 540 46 dac~;
#X obj 526 -102 freeverb~;
#X msg 814 -119 dry \$1;
#X obj 817 -149 hsl 50 20 0 1 0 0 empty empty empty -2 -8 0 10 -262144
-1 -1 0 1;
#X obj 887 -149 hsl 50 20 0 1 0 0 empty empty empty -2 -8 0 10 -262144
-1 -1 0 1;
#X obj 957 -149 hsl 50 20 0 1 0 0 empty empty empty -2 -8 0 10 -262144
-1 -1 0 1;
#X msg 884 -119 wet \$1;
#X msg 954 -119 roomsize \$1;
#X obj 641 -80 delwrite~ delayLeft 4000;
#X obj 635 -63 delwrite~ delayRight 4000;
#X obj 209 -11 vd~ delayLeft;
#X obj 209 -38 sig~;
#X floatatom 209 -64 5 0 0 0 - - -;
#X obj 299 -38 sig~;
#X floatatom 299 -64 5 0 0 0 - - -;
#X obj 11 -11 vd~ delayLeft;
#X obj 11 -38 sig~;
#X floatatom 11 -64 5 0 0 0 - - -;
#X obj 101 -38 sig~;
#X floatatom 101 -64 5 0 0 0 - - -;
#X obj 299 -11 vd~ delayRight;
#X obj 101 -11 vd~ delayRight;
#X obj 239 29 *~;
#X obj 209 29 *~;
#X obj 41 29 *~;
#X obj 11 29 *~;
#X obj 830 -230 receive master;
#X obj 64 -297 r d1;
#X obj 96 -297 r d1p;
#X obj 194 -297 r d2;
#X obj 324 -297 r d3;
#X obj 454 -299 r d4;
#X obj 584 -299 r d5;
#X obj 715 -297 r d6;
#X obj 747 -297 r d6p;
#X obj 616 -299 r d5p;
#X obj 486 -299 r d4p;
#X obj 356 -297 r d3p;
#X obj 226 -297 r d2p;
#X obj 1034 -201 r dry;
#X obj 1034 -184 r wet;
#X obj 1034 -167 r room;
#X obj 406 12 r dy1;
#X obj 435 12 r dy2;
#X obj 468 12 r dy3;
#X obj 503 12 r dy4;
#X obj 409 -108 r tempo;
#X obj 101 -91 * 2;
#X obj 299 -91 * 4;
#X obj 11 -91 * 3;
#X obj 209 -91 * 6;
#X floatatom 56 140 5 0 0 0 - - -;
#X floatatom 88 140 5 0 0 0 - - -;
#X floatatom 120 140 5 0 0 0 - - -;
#X floatatom 152 140 5 0 0 0 - - -;
#X floatatom 184 140 5 0 0 0 - - -;
#X floatatom 56 183 5 0 0 0 - - -;
#X obj 56 166 maxlib/scale;
#X obj 120 56 loadbang;
#X msg 120 83 127;
#X msg 152 83 0;
#X msg 184 83 1;
#X floatatom 224 139 5 0 0 0 - - -;
#X floatatom 256 139 5 0 0 0 - - -;
#X floatatom 288 139 5 0 0 0 - - -;
#X floatatom 320 139 5 0 0 0 - - -;
#X floatatom 352 139 5 0 0 0 - - -;
#X floatatom 224 182 5 0 0 0 - - -;
#X obj 224 165 maxlib/scale;
#X obj 288 55 loadbang;
#X msg 288 82 127;
#X msg 320 82 0;
#X msg 352 82 1;
#X floatatom 954 242 5 0 0 0 - - -;
#X floatatom 986 242 5 0 0 0 - - -;
#X floatatom 1018 242 5 0 0 0 - - -;
#X floatatom 1050 242 5 0 0 0 - - -;
#X floatatom 1082 242 5 0 0 0 - - -;
#X floatatom 954 285 5 0 0 0 - - -;
#X obj 954 268 maxlib/scale;
#X obj 1018 158 loadbang;
#X msg 1018 185 127;
#X msg 1050 185 0;
#X msg 1082 185 1;
#X floatatom 884 132 5 0 0 0 - - -;
#X floatatom 916 132 5 0 0 0 - - -;
#X floatatom 948 132 5 0 0 0 - - -;
#X floatatom 980 132 5 0 0 0 - - -;
#X floatatom 1012 132 5 0 0 0 - - -;
#X floatatom 884 175 5 0 0 0 - - -;
#X obj 884 158 maxlib/scale;
#X obj 948 48 loadbang;
#X msg 948 75 127;
#X obj 884 105 r closedx;
#X floatatom 814 18 5 0 0 0 - - -;
#X floatatom 846 18 5 0 0 0 - - -;
#X floatatom 878 18 5 0 0 0 - - -;
#X floatatom 910 18 5 0 0 0 - - -;
#X floatatom 942 18 5 0 0 0 - - -;
#X floatatom 814 61 5 0 0 0 - - -;
#X obj 814 44 maxlib/scale;
#X obj 878 -66 loadbang;
#X msg 878 -39 127;
#X obj 814 -9 r closedy;
#X msg 980 75 0;
#X msg 1012 75 1;
#X msg 910 -39 1;
#X msg 942 -39 0;
#X obj 954 215 r closedbfd;
#X obj 56 113 r openx;
#X obj 224 112 r openy;
#X text 995 -8 Closed hand Reverb Control;
#X text 51 210 Open hand Delay Control;
#X connect 0 0 1 0;
#X connect 3 0 28 0;
#X connect 4 0 21 0;
#X connect 7 0 33 0;
#X connect 10 0 34 0;
#X connect 13 0 35 0;
#X connect 16 0 36 0;
#X connect 19 0 37 0;
#X connect 21 0 2 0;
#X connect 22 0 29 0;
#X connect 23 0 49 0;
#X connect 23 0 50 0;
#X connect 24 0 23 0;
#X connect 25 0 30 0;
#X connect 26 0 32 0;
#X connect 27 0 31 0;
#X connect 28 0 39 0;
#X connect 28 0 40 0;
#X connect 29 0 69 0;
#X connect 29 0 70 0;
#X connect 30 0 79 0;
#X connect 30 0 80 0;
#X connect 31 0 89 0;
#X connect 31 0 90 0;
#X connect 32 0 59 0;
#X connect 32 0 60 0;
#X connect 33 0 6 0;
#X connect 34 0 9 0;
#X connect 35 0 12 0;
#X connect 36 0 15 0;
#X connect 37 0 18 0;
#X connect 38 0 46 1;
#X connect 38 0 47 1;
#X connect 39 0 46 0;
#X connect 40 0 47 0;
#X connect 41 0 42 0;
#X connect 41 0 39 1;
#X connect 42 0 44 0;
#X connect 43 0 40 1;
#X connect 44 0 45 0;
#X connect 45 0 43 0;
#X connect 46 0 101 0;
#X connect 47 0 102 0;
#X connect 48 0 56 1;
#X connect 48 0 57 1;
#X connect 49 0 56 0;
#X connect 50 0 57 0;
#X connect 51 0 52 0;
#X connect 51 0 49 1;
#X connect 52 0 54 0;
#X connect 53 0 50 1;
#X connect 54 0 55 0;
#X connect 55 0 53 0;
#X connect 56 0 101 0;
#X connect 57 0 102 0;
#X connect 58 0 66 1;
#X connect 58 0 67 1;
#X connect 59 0 66 0;
#X connect 60 0 67 0;
#X connect 61 0 62 0;
#X connect 61 0 59 1;
#X connect 62 0 64 0;
#X connect 63 0 60 1;
#X connect 64 0 65 0;
#X connect 65 0 63 0;
#X connect 66 0 101 0;
#X connect 67 0 102 0;
#X connect 68 0 76 1;
#X connect 68 0 77 1;
#X connect 69 0 76 0;
#X connect 70 0 77 0;
#X connect 71 0 72 0;
#X connect 71 0 69 1;
#X connect 72 0 74 0;
#X connect 73 0 70 1;
#X connect 74 0 75 0;
#X connect 75 0 73 0;
#X connect 76 0 101 0;
#X connect 77 0 102 0;
#X connect 78 0 86 1;
#X connect 78 0 87 1;
#X connect 79 0 86 0;
#X connect 80 0 87 0;
#X connect 81 0 82 0;
#X connect 81 0 79 1;
#X connect 82 0 84 0;
#X connect 83 0 80 1;
#X connect 84 0 85 0;
#X connect 85 0 83 0;
#X connect 86 0 101 0;
#X connect 87 0 102 0;
#X connect 88 0 96 1;
#X connect 88 0 97 1;
#X connect 89 0 96 0;
#X connect 90 0 97 0;
#X connect 91 0 92 0;
#X connect 91 0 89 1;
#X connect 92 0 94 0;
#X connect 93 0 90 1;
#X connect 94 0 95 0;
#X connect 95 0 93 0;
#X connect 96 0 101 0;
#X connect 97 0 102 0;
#X connect 98 0 99 0;
#X connect 98 0 100 0;
#X connect 100 0 3 0;
#X connect 100 1 24 0;
#X connect 100 2 26 0;
#X connect 100 3 22 0;
#X connect 100 4 25 0;
#X connect 100 5 27 0;
#X connect 101 0 105 0;
#X connect 102 0 105 1;
#X connect 103 0 102 1;
#X connect 103 0 101 1;
#X connect 105 0 104 0;
#X connect 105 0 112 0;
#X connect 105 1 104 1;
#X connect 105 1 113 0;
#X connect 106 0 105 0;
#X connect 107 0 106 0;
#X connect 108 0 110 0;
#X connect 109 0 111 0;
#X connect 110 0 105 0;
#X connect 111 0 105 0;
#X connect 114 0 127 0;
#X connect 115 0 114 0;
#X connect 116 0 115 0;
#X connect 117 0 124 0;
#X connect 118 0 117 0;
#X connect 119 0 129 0;
#X connect 120 0 119 0;
#X connect 121 0 120 0;
#X connect 122 0 125 0;
#X connect 123 0 122 0;
#X connect 124 0 126 0;
#X connect 125 0 128 0;
#X connect 126 0 104 1;
#X connect 127 0 104 0;
#X connect 128 0 104 1;
#X connect 129 0 104 0;
#X connect 130 0 103 0;
#X connect 131 0 38 0;
#X connect 132 0 41 0;
#X connect 133 0 48 0;
#X connect 134 0 58 0;
#X connect 135 0 68 0;
#X connect 136 0 78 0;
#X connect 137 0 88 0;
#X connect 138 0 91 0;
#X connect 139 0 81 0;
#X connect 140 0 71 0;
#X connect 141 0 61 0;
#X connect 142 0 51 0;
#X connect 143 0 107 0;
#X connect 144 0 108 0;
#X connect 145 0 109 0;
#X connect 146 0 129 1;
#X connect 147 0 128 1;
#X connect 148 0 127 1;
#X connect 149 0 126 1;
#X connect 150 0 151 0;
#X connect 150 0 152 0;
#X connect 150 0 153 0;
#X connect 150 0 154 0;
#X connect 151 0 123 0;
#X connect 152 0 118 0;
#X connect 153 0 121 0;
#X connect 154 0 116 0;
#X connect 155 0 161 0;
#X connect 156 0 161 1;
#X connect 157 0 161 2;
#X connect 158 0 161 3;
#X connect 159 0 161 4;
#X connect 160 0 129 1;
#X connect 160 0 128 1;
#X connect 161 0 160 0;
#X connect 162 0 163 0;
#X connect 162 0 164 0;
#X connect 162 0 165 0;
#X connect 163 0 157 0;
#X connect 164 0 158 0;
#X connect 165 0 159 0;
#X connect 166 0 172 0;
#X connect 167 0 172 1;
#X connect 168 0 172 2;
#X connect 169 0 172 3;
#X connect 170 0 172 4;
#X connect 171 0 127 1;
#X connect 171 0 126 1;
#X connect 172 0 171 0;
#X connect 173 0 174 0;
#X connect 173 0 175 0;
#X connect 173 0 176 0;
#X connect 174 0 168 0;
#X connect 175 0 169 0;
#X connect 176 0 170 0;
#X connect 177 0 183 0;
#X connect 178 0 183 1;
#X connect 179 0 183 2;
#X connect 180 0 183 3;
#X connect 181 0 183 4;
#X connect 182 0 109 0;
#X connect 183 0 182 0;
#X connect 184 0 185 0;
#X connect 184 0 186 0;
#X connect 184 0 187 0;
#X connect 185 0 179 0;
#X connect 186 0 180 0;
#X connect 187 0 181 0;
#X connect 188 0 194 0;
#X connect 189 0 194 1;
#X connect 190 0 194 2;
#X connect 191 0 194 3;
#X connect 192 0 194 4;
#X connect 193 0 108 0;
#X connect 194 0 193 0;
#X connect 195 0 196 0;
#X connect 195 0 208 0;
#X connect 195 0 209 0;
#X connect 196 0 190 0;
#X connect 197 0 188 0;
#X connect 198 0 204 0;
#X connect 199 0 204 1;
#X connect 200 0 204 2;
#X connect 201 0 204 3;
#X connect 202 0 204 4;
#X connect 203 0 107 0;
#X connect 204 0 203 0;
#X connect 205 0 206 0;
#X connect 205 0 210 0;
#X connect 205 0 211 0;
#X connect 206 0 200 0;
#X connect 207 0 198 0;
#X connect 208 0 191 0;
#X connect 209 0 192 0;
#X connect 210 0 201 0;
#X connect 211 0 202 0;
#X connect 212 0 177 0;
#X connect 213 0 155 0;
#X connect 214 0 166 0;
