#N canvas 2 22 1125 695 10;
#X obj 572 375 gemwin;
#X msg 572 338 create \, 1;
#X msg 652 338 0 \, destroy;
#X obj 22 121 gemhead;
#X obj 22 96 tgl 15 1 empty empty empty 17 7 0 10 -262144 -1 -1 1 1
;
#X obj 22 158 pix_film;
#X obj 73 96 bng 15 250 50 0 empty empty empty 17 7 0 10 -262144 -1
-1;
#X obj 25 349 pix_texture;
#X obj 25 460 rectangle 6 4;
#X msg 150 113 auto \$1;
#X obj 146 96 tgl 15 1 empty empty empty 17 7 0 10 -262144 -1 -1 1
1;
#X obj 22 204 pix_mix 0;
#X obj 505 187 knob 32 32 0 1 0 0 empty empty empty 0 -8 0 8 -262144
-1 -1 0 1;
#X obj 25 386 translateXYZ;
#X obj 25 423 rotateXYZ;
#X obj -216 419 vsl 15 128 -10 10 0 0 empty empty empty 0 -9 0 10 -262144
-1 -1 0 1;
#X obj -191 419 vsl 15 128 10 -10 0 0 empty empty empty 0 -9 0 10 -262144
-1 -1 0 1;
#X obj -166 419 vsl 15 128 -10 10 0 0 empty empty empty 0 -9 0 10 -262144
-1 -1 0 1;
#X floatatom -216 390 5 0 0 0 - - -;
#X floatatom 198 407 5 0 0 0 - - -;
#X msg 160 406 0;
#X msg -95 369 0;
#X obj -132 183 bondo 3;
#X obj -132 210 pack f f f;
#X obj 22 227 pix_gain;
#X msg -19 210 1;
#X floatatom -132 148 5 0 0 0 - - -;
#X floatatom -89 147 5 0 0 0 - - -;
#X floatatom -47 147 5 0 0 0 - - -;
#X obj 25 324 pix_threshold;
#X obj 238 278 bondo 3;
#X obj 238 305 pack f f f;
#X msg 62 297 0;
#X obj 149 273 knob 32 32 0 1 0 0 empty empty empty 0 -8 0 8 -262144
-1 -1 0 1;
#X obj 228 229 knob 32 32 0 1 0 0 empty empty empty 0 -8 0 8 -262144
-1 -1 0 1;
#X obj 268 230 knob 32 32 0 1 0 0 empty empty empty 0 -8 0 8 -262144
-1 -1 0 1;
#X obj 308 230 knob 32 32 0 1 0 0 empty empty empty 0 -8 0 8 -262144
-1 -1 0 1;
#X obj 22 -26 inlet;
#X floatatom 22 1 5 0 0 0 - - -;
#X obj 22 54 bng 15 250 50 0 empty empty empty 17 7 0 10 -262144 -1
-1;
#X msg 22 69 1;
#X msg 62 69 0;
#X obj 202 121 gemhead;
#X obj 202 96 tgl 15 1 empty empty empty 17 7 0 10 -262144 -1 -1 0
1;
#X obj 202 157 pix_film;
#X obj 258 96 bng 15 250 50 0 empty empty empty 17 7 0 10 -262144 -1
-1;
#X msg 326 121 auto \$1;
#X obj 326 96 tgl 15 1 empty empty empty 17 7 0 10 -262144 -1 -1 1
1;
#X msg 202 69 1;
#X msg 242 69 0;
#X obj 82 54 bng 15 250 50 0 empty empty empty 17 7 0 10 -262144 -1
-1;
#X obj 382 121 gemhead;
#X obj 382 96 tgl 15 1 empty empty empty 17 7 0 10 -262144 -1 -1 0
1;
#X obj 382 157 pix_film;
#X obj 438 96 bng 15 250 50 0 empty empty empty 17 7 0 10 -262144 -1
-1;
#X msg 506 121 auto \$1;
#X obj 506 96 tgl 15 1 empty empty empty 17 7 0 10 -262144 -1 -1 1
1;
#X obj 142 54 bng 15 250 50 0 empty empty empty 17 7 0 10 -262144 -1
-1;
#X msg 382 69 1;
#X msg 422 69 0;
#X obj 562 121 gemhead;
#X obj 562 96 tgl 15 1 empty empty empty 17 7 0 10 -262144 -1 -1 0
1;
#X obj 562 157 pix_film;
#X obj 618 96 bng 15 250 50 0 empty empty empty 17 7 0 10 -262144 -1
-1;
#X msg 686 121 auto \$1;
#X obj 686 96 tgl 15 1 empty empty empty 17 7 0 10 -262144 -1 -1 1
1;
#X msg 562 69 1;
#X msg 602 69 0;
#X obj 205 54 bng 15 250 50 0 empty empty empty 17 7 0 10 -262144 -1
-1;
#X obj -42 79 loadbang;
#X msg 618 121 open 29.mov;
#X msg 438 121 open 25.mov;
#X msg 258 121 open 21.mov;
#X obj 22 27 sel 1 2 3 4;
#X obj -132 68 r rot1;
#X floatatom -132 95 5 0 0 0 - - -;
#X obj -39 227 r rot1r;
#X obj -132 121 * 5;
#X floatatom 149 241 5 0 0 0 - - -;
#X obj 149 214 r rot2;
#X obj 62 270 r rot2r;
#X obj -216 336 r rot3;
#X obj -216 363 * 5;
#X obj -95 342 r rot3r;
#X obj 284 406 r rot4;
#X obj 240 406 * 180;
#X obj 160 379 r rot4r;
#X msg 572 284 fullscreen \$1;
#X obj 572 257 loadbang;
#X obj -354 10 r joyx;
#X floatatom -354 37 5 0 0 0 - - -;
#X obj -354 63 maxlib/scale;
#X floatatom -354 80 5 0 0 0 - - -;
#X floatatom -322 37 5 0 0 0 - - -;
#X floatatom -290 37 5 0 0 0 - - -;
#X floatatom -258 37 5 0 0 0 - - -;
#X floatatom -226 37 5 0 0 0 - - -;
#X msg -290 10 127;
#X floatatom 1 543 5 0 0 0 - - -;
#X obj 1 569 maxlib/scale;
#X floatatom 221 576 5 0 0 0 - - -;
#X floatatom 33 543 5 0 0 0 - - -;
#X floatatom 65 543 5 0 0 0 - - -;
#X floatatom 97 543 5 0 0 0 - - -;
#X floatatom 129 543 5 0 0 0 - - -;
#X msg 65 516 127;
#X obj 1 516 r joyy;
#X msg 97 516 -5;
#X msg 129 516 5;
#X obj -290 -17 loadbang;
#X obj 65 489 loadbang;
#X floatatom -354 227 5 0 0 0 - - -;
#X obj -354 253 maxlib/scale;
#X floatatom -354 282 5 0 0 0 - - -;
#X floatatom -322 227 5 0 0 0 - - -;
#X floatatom -290 227 5 0 0 0 - - -;
#X floatatom -258 227 5 0 0 0 - - -;
#X floatatom -226 227 5 0 0 0 - - -;
#X msg -290 200 127;
#X obj -290 173 loadbang;
#X obj -354 200 r joyy;
#X msg -258 10 0;
#X msg -226 10 2;
#X msg -258 200 -100;
#X msg -226 200 100;
#X msg 67 111 open 1.mov;
#X msg 572 311 dimen 1080 720;
#X obj 371 286 r joyx;
#X floatatom 371 313 5 0 0 0 - - -;
#X obj 371 339 maxlib/scale;
#X floatatom 371 356 5 0 0 0 - - -;
#X floatatom 403 313 5 0 0 0 - - -;
#X floatatom 435 313 5 0 0 0 - - -;
#X floatatom 467 313 5 0 0 0 - - -;
#X floatatom 499 313 5 0 0 0 - - -;
#X msg 435 286 127;
#X obj 435 259 loadbang;
#X msg 467 286 0;
#X msg 499 286 360;
#X connect 1 0 0 0;
#X connect 2 0 0 0;
#X connect 3 0 5 0;
#X connect 4 0 3 0;
#X connect 5 0 11 0;
#X connect 6 0 125 0;
#X connect 7 0 13 0;
#X connect 9 0 5 0;
#X connect 10 0 9 0;
#X connect 11 0 24 0;
#X connect 12 0 11 2;
#X connect 13 0 14 0;
#X connect 14 0 8 0;
#X connect 18 0 13 3;
#X connect 18 0 13 2;
#X connect 18 0 13 1;
#X connect 18 0 15 0;
#X connect 18 0 16 0;
#X connect 18 0 17 0;
#X connect 19 0 14 3;
#X connect 19 0 14 2;
#X connect 19 0 14 1;
#X connect 20 0 14 1;
#X connect 20 0 14 2;
#X connect 20 0 14 3;
#X connect 21 0 13 1;
#X connect 21 0 13 2;
#X connect 21 0 13 3;
#X connect 22 0 23 0;
#X connect 22 1 23 1;
#X connect 22 2 23 2;
#X connect 23 0 24 2;
#X connect 24 0 29 0;
#X connect 25 0 24 1;
#X connect 26 0 22 0;
#X connect 27 0 22 1;
#X connect 28 0 22 2;
#X connect 29 0 7 0;
#X connect 30 0 31 0;
#X connect 30 1 31 1;
#X connect 30 2 31 2;
#X connect 31 0 29 2;
#X connect 32 0 29 1;
#X connect 33 0 29 1;
#X connect 34 0 30 0;
#X connect 35 0 30 1;
#X connect 36 0 30 2;
#X connect 37 0 38 0;
#X connect 38 0 73 0;
#X connect 39 0 40 0;
#X connect 39 0 49 0;
#X connect 39 0 59 0;
#X connect 39 0 67 0;
#X connect 40 0 3 0;
#X connect 41 0 3 0;
#X connect 42 0 44 0;
#X connect 43 0 42 0;
#X connect 44 0 11 0;
#X connect 45 0 72 0;
#X connect 46 0 44 0;
#X connect 47 0 46 0;
#X connect 48 0 42 0;
#X connect 49 0 42 0;
#X connect 50 0 48 0;
#X connect 50 0 41 0;
#X connect 50 0 59 0;
#X connect 50 0 67 0;
#X connect 51 0 53 0;
#X connect 52 0 51 0;
#X connect 53 0 11 0;
#X connect 54 0 71 0;
#X connect 55 0 53 0;
#X connect 56 0 55 0;
#X connect 57 0 58 0;
#X connect 57 0 67 0;
#X connect 57 0 41 0;
#X connect 57 0 49 0;
#X connect 58 0 51 0;
#X connect 59 0 51 0;
#X connect 60 0 62 0;
#X connect 61 0 60 0;
#X connect 62 0 11 0;
#X connect 63 0 70 0;
#X connect 64 0 62 0;
#X connect 65 0 64 0;
#X connect 66 0 60 0;
#X connect 67 0 60 0;
#X connect 68 0 66 0;
#X connect 68 0 59 0;
#X connect 68 0 49 0;
#X connect 68 0 41 0;
#X connect 69 0 6 0;
#X connect 69 0 45 0;
#X connect 69 0 54 0;
#X connect 69 0 63 0;
#X connect 70 0 62 0;
#X connect 71 0 53 0;
#X connect 72 0 44 0;
#X connect 73 0 39 0;
#X connect 73 1 50 0;
#X connect 73 2 57 0;
#X connect 73 3 68 0;
#X connect 74 0 75 0;
#X connect 75 0 77 0;
#X connect 76 0 25 0;
#X connect 77 0 26 0;
#X connect 77 0 27 0;
#X connect 77 0 28 0;
#X connect 78 0 33 0;
#X connect 79 0 78 0;
#X connect 80 0 32 0;
#X connect 81 0 82 0;
#X connect 82 0 18 0;
#X connect 83 0 21 0;
#X connect 84 0 85 0;
#X connect 85 0 19 0;
#X connect 86 0 20 0;
#X connect 87 0 0 0;
#X connect 88 0 87 0;
#X connect 89 0 90 0;
#X connect 90 0 91 0;
#X connect 91 0 92 0;
#X connect 92 0 26 0;
#X connect 93 0 91 1;
#X connect 94 0 91 2;
#X connect 95 0 91 3;
#X connect 96 0 91 4;
#X connect 97 0 94 0;
#X connect 98 0 99 0;
#X connect 99 0 100 0;
#X connect 101 0 99 1;
#X connect 102 0 99 2;
#X connect 103 0 99 3;
#X connect 104 0 99 4;
#X connect 105 0 102 0;
#X connect 106 0 98 0;
#X connect 107 0 103 0;
#X connect 108 0 104 0;
#X connect 109 0 97 0;
#X connect 109 0 121 0;
#X connect 109 0 122 0;
#X connect 110 0 105 0;
#X connect 110 0 107 0;
#X connect 110 0 108 0;
#X connect 111 0 112 0;
#X connect 112 0 113 0;
#X connect 113 0 27 0;
#X connect 113 0 28 0;
#X connect 114 0 112 1;
#X connect 115 0 112 2;
#X connect 116 0 112 3;
#X connect 117 0 112 4;
#X connect 118 0 115 0;
#X connect 119 0 118 0;
#X connect 119 0 123 0;
#X connect 119 0 124 0;
#X connect 120 0 111 0;
#X connect 121 0 95 0;
#X connect 122 0 96 0;
#X connect 123 0 116 0;
#X connect 124 0 117 0;
#X connect 125 0 5 0;
#X connect 126 0 0 0;
#X connect 127 0 128 0;
#X connect 128 0 129 0;
#X connect 129 0 130 0;
#X connect 130 0 19 0;
#X connect 131 0 129 1;
#X connect 132 0 129 2;
#X connect 133 0 129 3;
#X connect 134 0 129 4;
#X connect 135 0 132 0;
#X connect 136 0 135 0;
#X connect 136 0 137 0;
#X connect 136 0 138 0;
#X connect 137 0 133 0;
#X connect 138 0 134 0;
